<svg xmlns="http://www.w3.org/2000/svg" viewBox="0 0 512 512">
  <defs>
    <linearGradient id="bg" x1="0%" y1="0%" x2="0%" y2="100%">
      <stop offset="0%" stop-color="#0a6a3b"/>
      <stop offset="100%" stop-color="#005129"/>
    </linearGradient>
    <linearGradient id="accent" x1="0%" y1="0%" x2="100%" y2="100%">
      <stop offset="0%" stop-color="#76c92b"/>
      <stop offset="100%" stop-color="#9bd93d"/>
    </linearGradient>
    <filter id="softShadow" x="-20%" y="-20%" width="140%" height="140%">
      <feDropShadow dx="0" dy="10" stdDeviation="12" flood-color="#04361d" flood-opacity="0.18"/>
    </filter>
  </defs>

  <rect width="512" height="512" rx="96" fill="#ffffff"/>

  <g transform="translate(256 246)" filter="url(#softShadow)">
    <path d="M -152 -14 A 154 154 0 1 1 112 114" fill="none" stroke="url(#bg)" stroke-width="42" stroke-linecap="round"/>
    <path d="M -114 128 C -86 162 -34 181 8 181 C 60 181 118 156 150 121" fill="none" stroke="url(#accent)" stroke-width="30" stroke-linecap="round"/>

    <path d="M -86 88 C -74 62 -44 49 -18 52 C 10 55 28 76 30 102" fill="#0a6a3b"/>
    <path d="M 78 88 C 66 62 36 49 10 52 C -18 55 -36 76 -38 102" fill="#6ebf2f"/>

    <circle cx="-92" cy="52" r="18" fill="#0a6a3b"/>
    <circle cx="92" cy="52" r="18" fill="#86d12f"/>

    <g fill="#0a6a3b">
      <rect x="-62" y="106" width="124" height="18" rx="2"/>
      <rect x="-44" y="124" width="88" height="22" rx="2"/>
      <path d="M -66 148 H 66 V 166 H -66 Z"/>
      <path d="M -34 70 L 0 40 L 34 70 Z"/>
      <path d="M -18 18 H 18 V 44 H -18 Z"/>
      <path d="M -8 8 H 8 V 20 H -8 Z"/>
      <path d="M -10 0 C -10 -10 10 -10 10 0" fill="none" stroke="#0a6a3b" stroke-width="8" stroke-linecap="round"/>
      <rect x="-14" y="44" width="28" height="26" rx="3"/>
      <rect x="-84" y="110" width="20" height="62" rx="10"/>
      <rect x="64" y="110" width="20" height="62" rx="10"/>
    </g>

    <g fill="#ffffff">
      <rect x="-52" y="114" width="12" height="44" rx="3" opacity="0.95"/>
      <rect x="-28" y="114" width="12" height="44" rx="3" opacity="0.95"/>
      <rect x="-4" y="114" width="12" height="44" rx="3" opacity="0.95"/>
      <rect x="20" y="114" width="12" height="44" rx="3" opacity="0.95"/>
      <rect x="44" y="114" width="12" height="44" rx="3" opacity="0.95"/>
    </g>

    <g fill="#76c92b">
      <circle cx="0" cy="-84" r="16"/>
      <circle cx="-64" cy="-54" r="14"/>
      <circle cx="64" cy="-54" r="14"/>
      <circle cx="-104" cy="-6" r="13"/>
      <circle cx="104" cy="-6" r="13"/>
    </g>

    <g fill="none" stroke="#76c92b" stroke-width="10" stroke-linecap="round">
      <path d="M -86 -44 C -56 -106 56 -106 86 -44"/>
      <path d="M -64 -54 C -34 -92 34 -92 64 -54"/>
    </g>
  </g>
</svg>
